# xmcd CD database file generated by Grip 3.0.0
# 
# Track frame offsets:
#       225
#       2393
#       11074
#       24022
#       36774
#       47216
#       55230
#       57398
#       63579
#       76577
#       90855
#       105700
#       119609
#       131475
#       145708
#       158015
#       164733
#       179149
#       192044
#       208710
# 
# Disc length: 2810 seconds
# 
# Revision: 3
# Processed by: cddbd v1.4PL0 Copyright (c) Steve Scherf et al.
# Submitted via: Grip 3.0.0
# 
DISCID=060af714
DTITLE=Various Artist - Frohe Weihnachten CD1
DYEAR=1900
DGENRE=Country
TTITLE0=Glockengeläut
TTITLE1=Leise rieselt der Schnee
TTITLE2=Ihr Kinderlein kommet
TTITLE3=Stille Nacht, heilige Nacht
TTITLE4=Süßer die Klocken nie Klingen
TTITLE5=Oh Tannenbaum
TTITLE6=Glockengeläut
TTITLE7=We Wish You A Merry Xmas
TTITLE8=Jingle Bells
TTITLE9=Heidschi Bumbeidschi
TTITLE10=First Noel
TTITLE11=The Holly And The Ivy
TTITLE12=Greensleeves
TTITLE13=Oh Little Town Of Bethlehem
TTITLE14=Let It Snow, Let It Snow
TTITLE15=Deck The Halls With Boughs Of Holy
TTITLE16=Silent Night
TTITLE17=Adeste Fidelis
TTITLE18=God Rest Ye Merry Christmas
TTITLE19=Glockengeläut
EXTD=
EXTT0=
EXTT1=
EXTT2=
EXTT3=
EXTT4=
EXTT5=
EXTT6=
EXTT7=
EXTT8=
EXTT9=
EXTT10=
EXTT11=
EXTT12=
EXTT13=
EXTT14=
EXTT15=
EXTT16=
EXTT17=
EXTT18=
EXTT19=
PLAYORDER=
